<svg id="Layer_1" data-name="Layer 1" xmlns="http://www.w3.org/2000/svg" viewBox="0 0 370 100"><defs><style>.cls-1{fill:#3c494f;}.cls-2{fill:#3c494e;}.cls-3{fill:#00d3a9;}.cls-4{fill:#00b39f;}.cls-5{fill:none;stroke:#00b39f;stroke-linecap:round;stroke-linejoin:round;stroke-width:0;}</style></defs><title>nighthawk-text-side</title><polygon class="cls-1" points="285.64 37.34 275.51 62.66 281.29 62.66 288.17 44.94 293.08 57.6 285.1 57.6 283.21 62.66 300.84 62.66 290.71 37.34 285.64 37.34"/><rect class="cls-1" x="141.61" y="37.34" width="5.57" height="25.33"/><path class="cls-1" d="M210.13,62.66h-4.81v-10H188.65v10h-4.82V47.33h21.49v-10h4.81ZM188.65,45h-4.82V37.34h4.82Z"/><path class="cls-1" d="M229.83,37.34h10v5.37H214.49V37.34h15.34"/><rect class="cls-1" x="224.47" y="44.95" width="5.37" height="17.71"/><path class="cls-1" d="M271.34,62.66h-4.82v-10H249.86v10H245V47.33h21.48v-10h4.82ZM249.86,45H245V37.34h4.82Z"/><path class="cls-1" d="M137.78,62.66h-5.37V44.19a1.39,1.39,0,0,0-.12-.57,1.75,1.75,0,0,0-.32-.48,1.7,1.7,0,0,0-.47-.32,1.43,1.43,0,0,0-.58-.11H106.1V37.34h24.82a6.58,6.58,0,0,1,2.65.54,7.07,7.07,0,0,1,2.2,1.47,7.15,7.15,0,0,1,1.47,2.19,6.61,6.61,0,0,1,.54,2.65Zm-23.73,0h-5.37V45.52h5.37Z"/><polygon class="cls-2" points="304.95 37.34 300.24 37.34 305.72 62.66 310.39 62.66 304.95 37.34"/><polygon class="cls-2" points="311.38 60.2 316.06 46.95 318.97 62.66 324.22 62.66 328.51 37.37 323.84 37.37 321.51 51.07 318.99 37.42 314.6 37.42 309.58 51.87 311.38 60.2"/><polyline class="cls-2" points="357.62 37.34 350.5 37.34 337.05 48.63 337.05 37.35 332.05 37.35 332.05 62.66 337.05 62.66 337.05 55.36"/><polygon class="cls-2" points="346.25 49.57 357.9 62.66 350.71 62.66 342.13 53.04 346.25 49.57"/><path class="cls-1" d="M178.06,37.34v4.29h-18.6a1.81,1.81,0,0,0-.58.09,1.84,1.84,0,0,0-.48.26,1.3,1.3,0,0,0-.32.38.93.93,0,0,0-.12.46V62.66h0a5.41,5.41,0,0,1-5.41-5.4V43.07a5,5,0,0,1,2-4.13,7.62,7.62,0,0,1,2.21-1.17,8.12,8.12,0,0,1,2.67-.43Z"/><rect class="cls-1" x="166.35" y="47.87" width="11.71" height="4.29"/><rect class="cls-1" x="173.77" y="47.86" width="4.29" height="8.56"/><path class="cls-1" d="M178.06,58.37v2.17a2.12,2.12,0,0,1-2.12,2.12H158V58.37Z"/><polygon class="cls-3" points="56.23 50.76 53.17 51.31 50.35 50.8 48.96 50.55 47.85 61.32 45.53 84 53.17 70.63 60.81 84 58.48 61.32 57.38 50.55 56.23 50.76"/><path class="cls-4" d="M95.45,59.43h0L57.21,20.78a45,45,0,0,0-4-4.75l0,0h0l0,0a46.44,46.44,0,0,0-4,4.76L11.42,58.89l17-3.09h0l.1,0,0,0,0,0h0l5.27-1,5.38-1,2.52-3.35,6.17,10.81L49,50.55l1.39.25,2.82.51,3.06-.55,1.15-.21,1.1,10.77,6.18-10.81,2.51,3.35,5.5,1,5.38,1,.17,0h0l16.68,3ZM58.34,50.22c0,.05,0,.1,0,.15S58.35,50.27,58.34,50.22Z"/><line class="cls-5" x1="28.51" y1="55.79" x2="28.48" y2="55.76"/><path class="cls-4" d="M65.16,62.29a.69.69,0,0,0,.13.11l-.06-.14Z"/><path class="cls-4" d="M41.56,61.87h0s0,.05,0,.06h0l0,0v0h0Z"/><path class="cls-5" d="M41.56,61.87h0"/><path class="cls-5" d="M58.36,50.37s0-.1,0-.15"/><polygon class="cls-3" points="95.45 59.44 95.45 59.44 94.91 58.89 78.22 55.86 78.22 55.86 95.66 73.49 95.66 61.47 95.45 59.44"/><polygon class="cls-3" points="11.42 58.89 11.41 58.89 10.87 59.44 10.66 61.47 10.66 73.75 28.41 55.81 28.42 55.8 11.42 58.89"/></svg>