<svg id="Layer_1" data-name="Layer 1" xmlns="http://www.w3.org/2000/svg" viewBox="0 0 370 100"><defs><style>.cls-1{fill:#fff;}.cls-2{opacity:0.8;}.cls-3{fill:none;stroke:#00b39f;stroke-linecap:round;stroke-linejoin:round;stroke-width:0;}.cls-4{fill:#00b39f;}</style></defs><title>nighthawk-text-side_white</title><polygon class="cls-1" points="280.64 37.34 270.51 62.66 276.29 62.66 283.17 44.94 288.08 57.6 280.1 57.6 278.21 62.66 295.84 62.66 285.71 37.34 280.64 37.34"/><rect class="cls-1" x="136.61" y="37.34" width="5.57" height="25.33"/><path class="cls-1" d="M205.13,62.66h-4.81v-10H183.65v10h-4.82V47.33h21.49v-10h4.81ZM183.65,45h-4.82V37.34h4.82Z"/><path class="cls-1" d="M224.83,37.34h10v5.37H209.49V37.34h15.34"/><rect class="cls-1" x="219.47" y="44.95" width="5.37" height="17.71"/><path class="cls-1" d="M266.34,62.66h-4.82v-10H244.86v10H240V47.33h21.48v-10h4.82ZM244.86,45H240V37.34h4.82Z"/><path class="cls-1" d="M132.78,62.66h-5.37V44.19a1.39,1.39,0,0,0-.12-.57,1.75,1.75,0,0,0-.32-.48,1.7,1.7,0,0,0-.47-.32,1.43,1.43,0,0,0-.58-.11H101.1V37.34h24.82a6.58,6.58,0,0,1,2.65.54,7.07,7.07,0,0,1,2.2,1.47,7.15,7.15,0,0,1,1.47,2.19,6.61,6.61,0,0,1,.54,2.65Zm-23.73,0h-5.37V45.52h5.37Z"/><polygon class="cls-1" points="299.95 37.34 295.24 37.34 300.72 62.66 305.39 62.66 299.95 37.34"/><polygon class="cls-1" points="306.38 60.2 311.06 46.95 313.97 62.66 319.22 62.66 323.51 37.37 318.84 37.37 316.51 51.07 313.99 37.42 309.6 37.42 304.58 51.87 306.38 60.2"/><polyline class="cls-1" points="352.62 37.34 345.5 37.34 332.05 48.63 332.05 37.35 327.05 37.35 327.05 62.66 332.05 62.66 332.05 55.36"/><polygon class="cls-1" points="341.25 49.57 352.9 62.66 345.71 62.66 337.13 53.04 341.25 49.57"/><path class="cls-1" d="M173.06,37.34v4.29h-18.6a1.81,1.81,0,0,0-.58.09,1.84,1.84,0,0,0-.48.26,1.3,1.3,0,0,0-.32.38.93.93,0,0,0-.12.46V62.66h0a5.41,5.41,0,0,1-5.41-5.4V43.07a5,5,0,0,1,2-4.13,7.62,7.62,0,0,1,2.21-1.17,8.12,8.12,0,0,1,2.67-.43Z"/><rect class="cls-1" x="161.35" y="47.87" width="11.71" height="4.29"/><rect class="cls-1" x="168.77" y="47.86" width="4.29" height="8.56"/><path class="cls-1" d="M173.06,58.37v2.17a2.12,2.12,0,0,1-2.12,2.12H153V58.37Z"/><g class="cls-2"><polygon class="cls-1" points="54.23 50.76 51.17 51.31 48.35 50.8 46.96 50.55 45.85 61.32 43.53 84 51.17 70.63 58.81 84 56.48 61.32 55.38 50.55 54.23 50.76"/></g><path class="cls-1" d="M93.45,59.43h0L55.22,20.78a46.31,46.31,0,0,0-4-4.75l0,0h0l0,0a46.44,46.44,0,0,0-4,4.76L9.42,58.89l17-3.09h0l.1,0,0,0,0,0h0l5.27-1,5.38-1,2.52-3.35,6.17,10.81L47,50.55l1.39.25,2.82.51,3.06-.55,1.15-.21,1.1,10.77,6.18-10.81,2.51,3.35,5.5,1,5.38,1,.17,0h0l16.68,3ZM56.34,50.22c0,.05,0,.1,0,.15S56.35,50.27,56.34,50.22Z"/><line class="cls-3" x1="26.51" y1="55.79" x2="26.48" y2="55.76"/><path class="cls-4" d="M63.16,62.29a.69.69,0,0,0,.13.11.78.78,0,0,1,0-.14Z"/><path class="cls-4" d="M39.56,61.87h0s0,.05,0,.06h0l0,0v0h0Z"/><path class="cls-3" d="M39.56,61.87h0"/><path class="cls-3" d="M56.36,50.37s0-.1,0-.15"/><g class="cls-2"><polygon class="cls-1" points="93.45 59.44 93.45 59.44 92.91 58.89 76.23 55.86 76.22 55.86 93.66 73.49 93.66 61.47 93.45 59.44"/></g><g class="cls-2"><polygon class="cls-1" points="9.43 58.89 9.41 58.89 8.87 59.44 8.66 61.47 8.66 73.75 26.41 55.81 26.42 55.8 9.43 58.89"/></g></svg>