<svg xmlns="http://www.w3.org/2000/svg" id="Layer_1" data-name="Layer 1" viewBox="0 0 251.8 25.33"><defs><style>.cls-1{fill:#3c494f}.cls-2{fill:#3c494e}</style></defs><title>nighthawk-text</title><polygon points="179.54 0 169.41 25.33 175.19 25.33 182.07 7.6 186.98 20.26 179 20.26 177.11 25.33 194.74 25.33 184.61 0 179.54 0" class="cls-1"/><rect width="5.57" height="25.33" x="35.51" class="cls-1"/><path d="M104,25.33H99.22v-10H82.55v10H77.73V10H99.22V0H104ZM82.55,7.62H77.73V0h4.82Z" class="cls-1"/><path d="M123.73,0h10V5.37H108.39V0h15.34" class="cls-1"/><rect width="5.37" height="17.71" x="118.37" y="7.62" class="cls-1"/><path d="M165.24,25.33h-4.82v-10H143.76v10h-4.82V10h21.48V0h4.82ZM143.76,7.62h-4.82V0h4.82Z" class="cls-1"/><path d="M31.68,25.33H26.31V6.86a1.4,1.4,0,0,0-.12-.58,1.56,1.56,0,0,0-.32-.47,1.51,1.51,0,0,0-.47-.32,1.43,1.43,0,0,0-.58-.12H0V0H24.82a6.58,6.58,0,0,1,2.65.54A7.07,7.07,0,0,1,29.67,2,7.15,7.15,0,0,1,31.14,4.2a6.66,6.66,0,0,1,.54,2.66ZM8,25.33H2.58V8.18H8Z" class="cls-1"/><polygon points="198.85 0 194.13 0 199.62 25.33 204.29 25.33 198.85 0" class="cls-2"/><polygon points="205.28 22.86 209.96 9.62 212.87 25.33 218.12 25.33 222.41 .03 217.74 .03 215.41 13.73 212.89 .08 208.5 .08 203.48 14.53 205.28 22.86" class="cls-2"/><polyline points="251.52 0 244.4 0 230.95 11.29 230.95 .01 225.95 .01 225.95 25.33 230.95 25.33 230.95 18.02" class="cls-2"/><polygon points="240.15 12.24 251.8 25.33 244.61 25.33 236.03 15.71 240.15 12.24" class="cls-2"/><path d="M72,0V4.29H53.36a1.83,1.83,0,0,0-1.06.35A1.44,1.44,0,0,0,52,5a1,1,0,0,0-.12.46V25.33h0a5.41,5.41,0,0,1-5.41-5.41V5.73A5.93,5.93,0,0,1,47,3.28a5.85,5.85,0,0,1,1.44-1.67A7.41,7.41,0,0,1,50.69.43,8.12,8.12,0,0,1,53.36,0Z" class="cls-1"/><rect width="11.71" height="4.29" x="60.25" y="10.53" class="cls-1"/><rect width="4.29" height="8.56" x="67.67" y="10.53" class="cls-1"/><path d="M72,21V23.2a2.12,2.12,0,0,1-2.12,2.13h-18V21Z" class="cls-1"/></svg>