<svg xmlns="http://www.w3.org/2000/svg" width="48" height="48" fill="none" viewBox="0 0 48 48"><path fill="#00B39F" d="M36.7406 44.1114C34.7773 45.4977 32.577 46.5134 30.2482 47.1082C27.5111 47.7944 24.7323 48.2617 21.9205 47.6672C16.5367 46.5284 13.0532 41.1305 14.2719 35.7657C14.4652 34.9156 14.9216 33.9125 15.5836 33.4196C17.9989 31.6215 19.8551 29.4993 20.6003 26.2995C20.6063 26.2727 20.6195 26.248 20.6385 26.2281C20.6575 26.2082 20.6815 26.1939 20.7081 26.1866C20.7346 26.1793 20.7626 26.1793 20.7891 26.1867C20.8155 26.1941 20.8395 26.2086 20.8584 26.2285C21.4237 26.8401 21.9156 27.3 22.3035 27.8419C24.0165 30.232 24.7507 32.8704 24.0911 35.7926C23.7241 37.4059 24.1903 38.7881 25.1826 40.0174C28.069 43.594 31.7459 45.09 36.3172 44.1689C36.4555 44.1395 36.5986 44.1298 36.7406 44.1114Z"/><path fill="#00B39F" d="M26.3474 27.3453C26.3277 27.3337 26.3108 27.3178 26.298 27.2988C26.2852 27.2798 26.2769 27.2582 26.2736 27.2355C26.2703 27.2128 26.2722 27.1897 26.279 27.1679C26.2859 27.146 26.2975 27.126 26.3131 27.1092C28.8631 24.4256 31.8854 23.2195 35.4717 23.8617C37.575 24.2397 39.1975 23.6599 40.7074 22.2814C43.8459 19.4203 44.9667 15.9514 44.213 11.7168C44.2047 11.6827 44.2085 11.6469 44.2239 11.6154C44.2392 11.5839 44.265 11.5587 44.2969 11.5442C44.3288 11.5298 44.3648 11.5268 44.3986 11.536C44.4324 11.5452 44.462 11.5658 44.4822 11.5944C44.5201 11.6458 44.5543 11.6947 44.5849 11.7449C46.9097 15.6591 48.1027 19.8913 47.9204 24.4439C47.6757 30.6026 41.7022 35.1064 35.6846 33.7487C34.6299 33.5101 33.7097 33.0074 33.1028 32.0851C31.5195 29.6816 29.3317 28.1502 26.5505 27.4371C26.479 27.4157 26.4107 27.3848 26.3474 27.3453Z"/><path fill="#00D3A9" d="M19.9138 23.2538C19.9363 23.2402 19.9619 23.2327 19.9881 23.232C20.0144 23.2313 20.0404 23.2374 20.0635 23.2497C20.0867 23.262 20.1063 23.2802 20.1204 23.3023C20.1345 23.3245 20.1425 23.3499 20.1438 23.3761C20.2992 26.938 19.2017 29.9263 16.418 31.8002C13.408 33.8258 13.1217 36.5167 13.5475 39.5637C13.9843 42.6914 15.6729 45.0998 18.2779 46.8697L18.4002 46.9578C18.4282 46.9774 18.4486 47.0059 18.4582 47.0387C18.4678 47.0714 18.466 47.1065 18.4531 47.138C18.4401 47.1696 18.4168 47.1959 18.387 47.2125C18.3571 47.229 18.3226 47.235 18.2889 47.2294C18.2118 47.2171 18.1457 47.2037 18.0796 47.1865C13.6576 46.0086 9.74581 43.9096 6.70888 40.4591C2.62822 35.811 3.58874 28.8633 8.74615 25.4519C9.49131 24.9626 10.5742 24.5638 11.4099 24.6972C14.3808 25.1656 17.1571 24.8868 19.9138 23.2538Z"/><path fill="#00D3A9" d="M24.6063 20.1603C24.6295 20.2545 24.5586 20.3646 24.4631 20.3487C20.96 19.7922 18.4859 18.8564 16.0865 16.4235C14.092 13.3191 11.3451 13.061 8.26898 13.4647C5.19289 13.8683 2.81424 15.4817 1.05717 18.0198C1.02046 18.0724 0.980086 18.1238 0.934813 18.18C0.912917 18.2066 0.882623 18.225 0.848912 18.232C0.8152 18.2391 0.78008 18.2345 0.749325 18.219C0.71857 18.2035 0.694012 18.178 0.679689 18.1467C0.665367 18.1154 0.662133 18.0801 0.670519 18.0467C1.46721 14.915 2.91656 11.9868 4.9237 9.45386C6.45685 7.49677 8.16742 5.77576 10.5644 4.8119C14.8568 3.08599 20.6774 5.07733 22.7758 9.18598C23.2302 10.0887 23.3902 11.1111 23.2334 12.1094C22.8039 14.8811 23.0719 17.4779 24.5255 19.9133C24.5649 19.991 24.5921 20.0744 24.6063 20.1603Z"/><path fill="#00D3A9" d="M27.927 24.6554C27.9062 24.6549 27.8856 24.65 27.8667 24.6411C27.8479 24.6322 27.831 24.6195 27.8173 24.6037C27.8036 24.5879 27.7934 24.5695 27.7872 24.5496C27.781 24.5296 27.7791 24.5086 27.7814 24.4879C27.9038 23.4347 27.9307 22.3864 28.1791 21.3932C28.7909 18.9383 30.154 16.9555 32.316 15.5856C33.7427 14.6816 34.3961 13.3325 34.5528 11.7301C34.9847 7.19823 33.4258 3.56539 29.5789 1.00405C29.5494 0.984207 29.5278 0.954549 29.5181 0.920341C29.5084 0.886133 29.5111 0.849588 29.5258 0.817188C29.5404 0.784788 29.5661 0.758628 29.5982 0.743351C29.6303 0.728073 29.6668 0.724665 29.7012 0.733731C30.1222 0.835255 30.5431 0.930663 30.9542 1.0591C34.7302 2.24069 38.0657 4.17086 40.8652 6.98051C45.3925 11.5246 44.6583 18.9212 39.3284 22.5149C38.4352 23.1179 37.46 23.4934 36.3588 23.2757C33.4515 22.7118 30.7119 23.1155 28.1608 24.6518C28.1216 24.6689 28.0714 24.6603 27.927 24.6554Z"/><path fill="#00B39F" d="M21.6831 20.6568C21.7108 20.6856 21.7263 20.7239 21.7263 20.7639C21.7263 20.8038 21.7108 20.8422 21.6831 20.8709C19.143 23.5484 16.0962 24.7031 12.4977 24.0707C10.5925 23.7356 9.04471 24.16 7.62658 25.3979C4.3388 28.2736 3.1556 31.4355 3.63769 35.9955C3.64048 36.0299 3.63149 36.0641 3.61221 36.0927C3.59293 36.1212 3.56451 36.1423 3.53161 36.1526C3.49872 36.1628 3.46331 36.1616 3.43122 36.1491C3.39913 36.1365 3.37226 36.1134 3.35504 36.0836C2.93168 35.3191 2.49853 34.5571 2.14492 33.7595C0.814373 30.7953 0.106409 27.5897 0.0648249 24.3411C-0.0293911 17.194 6.67218 12.6193 12.7901 14.3905C13.5804 14.6341 14.2743 15.1197 14.7735 15.7788C16.4865 18.1983 18.689 19.8508 21.5681 20.57C21.6024 20.5773 21.6317 20.6067 21.6831 20.6568Z"/><path fill="#00B39F" d="M27.3765 21.6257C27.3653 21.6458 27.3496 21.6631 27.3307 21.6762C27.3118 21.6894 27.2901 21.698 27.2674 21.7016C27.2446 21.7051 27.2213 21.7034 27.1993 21.6966C27.1773 21.6898 27.1571 21.6781 27.1403 21.6624C24.5941 19.2307 23.2187 16.3477 23.8672 12.9656C24.4546 9.90764 23.2249 7.88818 21.1178 6.11579C18.4052 3.81744 15.2789 3.01992 11.7831 3.76973L11.7268 3.77952C11.6938 3.78528 11.6598 3.77995 11.6301 3.76436C11.6005 3.74877 11.5768 3.7238 11.5628 3.69334C11.5489 3.66289 11.5454 3.62866 11.5529 3.59601C11.5604 3.56336 11.5786 3.53412 11.6045 3.51286C11.6522 3.4718 11.7033 3.43497 11.7574 3.40278C15.668 1.14479 19.8563 -0.0796131 24.3909 0.0745075C30.5615 0.283671 35.1169 6.22221 33.7709 12.25C33.5262 13.3387 33.0368 14.2817 32.0824 14.919C29.7233 16.4945 28.1608 18.6314 27.4842 21.4019C27.4577 21.4806 27.4215 21.5558 27.3765 21.6257Z"/><path fill="#00D3A9" d="M23.3166 28.0388C23.3127 28.0178 23.3134 27.9962 23.3184 27.9754C23.3234 27.9547 23.3327 27.9352 23.3458 27.9182C23.3588 27.9013 23.3752 27.8873 23.394 27.8771C23.4128 27.8669 23.4335 27.8607 23.4548 27.859C25.9974 27.6927 28.2537 28.3715 30.2127 29.9176C31.0557 30.5895 31.7917 31.3855 32.3956 32.2784C33.3659 33.7156 34.6922 34.3847 36.3416 34.5302C40.9239 34.9388 44.5604 33.345 47.07 29.4051C47.1024 29.3603 47.1397 29.3192 47.1814 29.2828C47.202 29.2624 47.2282 29.2485 47.2566 29.2426C47.2851 29.2367 47.3146 29.2392 47.3416 29.2498L47.3673 29.2595C47.3857 29.2666 47.4024 29.2772 47.4167 29.2907C47.4309 29.3042 47.4423 29.3205 47.4503 29.3384C47.4583 29.3564 47.4626 29.3757 47.463 29.3953C47.4635 29.415 47.4601 29.4345 47.453 29.4528C46.8192 31.1347 46.2637 32.8569 45.5173 34.4935C44.4082 36.8788 42.8708 39.0404 40.9814 40.8712C36.4909 45.2966 28.9903 44.5407 25.4909 39.2982C24.8534 38.3429 24.5206 37.3068 24.7396 36.1424C25.2657 33.3291 24.8925 30.6784 23.3704 28.2223C23.3408 28.1652 23.3225 28.1029 23.3166 28.0388Z"/></svg>